<?xml version="1.0" standalone="no"?>
<svg xmlns:xlink="http://www.w3.org/1999/xlink" id="wave" style="transform:rotate(0deg); transition: 0.3s" viewBox="0 0 1440 490" version="1.1" xmlns="http://www.w3.org/2000/svg"><defs><linearGradient id="sw-gradient-0" x1="0" x2="0" y1="1" y2="0"><stop stop-color="rgba(146, 180, 167, 1)" offset="0%"/><stop stop-color="rgba(146, 180, 167, 1)" offset="100%"/></linearGradient></defs><path style="transform:translate(0, 0px); opacity:1" fill="url(#sw-gradient-0)" d="M0,98L26.7,114.3C53.3,131,107,163,160,187.8C213.3,212,267,229,320,212.3C373.3,196,427,147,480,138.8C533.3,131,587,163,640,212.3C693.3,261,747,327,800,351.2C853.3,376,907,359,960,302.2C1013.3,245,1067,147,1120,130.7C1173.3,114,1227,180,1280,196C1333.3,212,1387,180,1440,204.2C1493.3,229,1547,310,1600,285.8C1653.3,261,1707,131,1760,114.3C1813.3,98,1867,196,1920,253.2C1973.3,310,2027,327,2080,285.8C2133.3,245,2187,147,2240,155.2C2293.3,163,2347,278,2400,318.5C2453.3,359,2507,327,2560,277.7C2613.3,229,2667,163,2720,114.3C2773.3,65,2827,33,2880,32.7C2933.3,33,2987,65,3040,65.3C3093.3,65,3147,33,3200,32.7C3253.3,33,3307,65,3360,81.7C3413.3,98,3467,98,3520,98C3573.3,98,3627,98,3680,138.8C3733.3,180,3787,261,3813,302.2L3840,343L3840,490L3813.3,490C3786.7,490,3733,490,3680,490C3626.7,490,3573,490,3520,490C3466.7,490,3413,490,3360,490C3306.7,490,3253,490,3200,490C3146.7,490,3093,490,3040,490C2986.7,490,2933,490,2880,490C2826.7,490,2773,490,2720,490C2666.7,490,2613,490,2560,490C2506.7,490,2453,490,2400,490C2346.7,490,2293,490,2240,490C2186.7,490,2133,490,2080,490C2026.7,490,1973,490,1920,490C1866.7,490,1813,490,1760,490C1706.7,490,1653,490,1600,490C1546.7,490,1493,490,1440,490C1386.7,490,1333,490,1280,490C1226.7,490,1173,490,1120,490C1066.7,490,1013,490,960,490C906.7,490,853,490,800,490C746.7,490,693,490,640,490C586.7,490,533,490,480,490C426.7,490,373,490,320,490C266.7,490,213,490,160,490C106.7,490,53,490,27,490L0,490Z"/><defs><linearGradient id="sw-gradient-1" x1="0" x2="0" y1="1" y2="0"><stop stop-color="rgba(146, 180, 167, 0.8)" offset="0%"/><stop stop-color="rgba(146, 180, 167, 0.8)" offset="100%"/></linearGradient></defs><path style="transform:translate(0, 50px); opacity:0.9" fill="url(#sw-gradient-1)" d="M0,441L26.7,416.5C53.3,392,107,343,160,334.8C213.3,327,267,359,320,343C373.3,327,427,261,480,253.2C533.3,245,587,294,640,261.3C693.3,229,747,114,800,57.2C853.3,0,907,0,960,32.7C1013.3,65,1067,131,1120,138.8C1173.3,147,1227,98,1280,81.7C1333.3,65,1387,82,1440,114.3C1493.3,147,1547,196,1600,212.3C1653.3,229,1707,212,1760,212.3C1813.3,212,1867,229,1920,236.8C1973.3,245,2027,245,2080,212.3C2133.3,180,2187,114,2240,147C2293.3,180,2347,310,2400,343C2453.3,376,2507,310,2560,245C2613.3,180,2667,114,2720,138.8C2773.3,163,2827,278,2880,310.3C2933.3,343,2987,294,3040,285.8C3093.3,278,3147,310,3200,318.5C3253.3,327,3307,310,3360,302.2C3413.3,294,3467,294,3520,245C3573.3,196,3627,98,3680,106.2C3733.3,114,3787,229,3813,285.8L3840,343L3840,490L3813.3,490C3786.7,490,3733,490,3680,490C3626.7,490,3573,490,3520,490C3466.7,490,3413,490,3360,490C3306.7,490,3253,490,3200,490C3146.7,490,3093,490,3040,490C2986.7,490,2933,490,2880,490C2826.7,490,2773,490,2720,490C2666.7,490,2613,490,2560,490C2506.7,490,2453,490,2400,490C2346.7,490,2293,490,2240,490C2186.7,490,2133,490,2080,490C2026.7,490,1973,490,1920,490C1866.7,490,1813,490,1760,490C1706.7,490,1653,490,1600,490C1546.7,490,1493,490,1440,490C1386.7,490,1333,490,1280,490C1226.7,490,1173,490,1120,490C1066.7,490,1013,490,960,490C906.7,490,853,490,800,490C746.7,490,693,490,640,490C586.7,490,533,490,480,490C426.7,490,373,490,320,490C266.7,490,213,490,160,490C106.7,490,53,490,27,490L0,490Z"/></svg>